<svg width="227" height="15" viewBox="0 0 227 15" fill="none" xmlns="http://www.w3.org/2000/svg">
<path d="M0 0.303948H3.536C5.696 0.303948 6.96 1.56795 6.96 3.35995C6.96 4.57595 6.256 5.47195 5.248 5.82395C6.528 6.14395 7.312 7.29595 7.312 8.57595C7.312 10.3679 5.904 11.6479 3.824 11.6479H0V0.303948ZM1.344 5.34395H3.536C4.784 5.34395 5.616 4.54395 5.616 3.42395C5.616 2.23995 4.784 1.48795 3.36 1.48795H1.344V5.34395ZM1.344 10.4639H3.664C5.04 10.4639 5.968 9.69595 5.968 8.49595C5.968 7.31195 5.152 6.49595 3.776 6.49595H1.344V10.4639ZM14.3934 10.6079C14.0254 11.3919 13.0974 11.8719 12.0894 11.8719C10.2334 11.8719 9.20938 10.4959 9.20938 8.79995V3.98395H10.4894V8.59195C10.4894 9.71195 11.0174 10.7199 12.3774 10.7199C13.6414 10.7199 14.3294 9.82395 14.3294 8.60795V3.98395H15.6094V10.2079C15.6094 10.7999 15.6574 11.3439 15.7054 11.6479H14.4734C14.4254 11.4719 14.3934 11.0559 14.3934 10.6719V10.6079ZM17.4939 9.63195L18.6459 9.23195C18.7579 10.1119 19.4139 10.7839 20.5659 10.7839C21.4779 10.7839 22.0539 10.2719 22.0539 9.61595C22.0539 9.03995 21.5899 8.65595 20.8859 8.49595L19.6379 8.20795C18.4699 7.93595 17.7339 7.18395 17.7339 6.07995C17.7339 4.79995 18.9499 3.75995 20.4059 3.75995C22.3899 3.75995 23.0779 5.02395 23.2539 5.80795L22.1179 6.22395C22.0219 5.69595 21.6219 4.84795 20.4059 4.84795C19.6059 4.84795 18.9819 5.35995 18.9819 5.99995C18.9819 6.54395 19.3179 6.87995 19.9899 7.03995L21.2379 7.32795C22.5819 7.63195 23.3179 8.41595 23.3179 9.55195C23.3179 10.6559 22.3739 11.8719 20.5499 11.8719C18.5339 11.8719 17.6219 10.5919 17.4939 9.63195ZM24.9854 0.959949C24.9854 0.431949 25.4174 -5.14984e-05 25.9454 -5.14984e-05C26.4734 -5.14984e-05 26.9054 0.431949 26.9054 0.959949C26.9054 1.48795 26.4734 1.91995 25.9454 1.91995C25.4174 1.91995 24.9854 1.48795 24.9854 0.959949ZM26.5854 11.6479H25.3054V3.98395H26.5854V11.6479ZM30.3666 7.13595V11.6479H29.0866V3.98395H30.3346V5.13595C30.8306 4.23995 31.7266 3.75995 32.7346 3.75995C34.5746 3.75995 35.4706 5.07195 35.4706 6.73595V11.6479H34.1906V6.92795C34.1906 5.80795 33.6786 4.91195 32.2866 4.91195C31.0546 4.91195 30.3666 5.93595 30.3666 7.13595ZM43.4195 9.24795L44.5395 9.63195C44.0595 10.8799 42.8915 11.8719 41.1795 11.8719C39.1315 11.8719 37.3875 10.3679 37.3875 7.79195C37.3875 5.37595 39.0835 3.75995 41.0195 3.75995C43.3395 3.75995 44.6355 5.37595 44.6355 7.71195C44.6355 7.87195 44.6195 8.04795 44.6035 8.15995H38.6995V8.22395C38.6995 9.67995 39.8035 10.7199 41.1795 10.7199C42.3955 10.7199 43.0835 10.0799 43.4195 9.24795ZM38.7315 7.07195H43.3075C43.2755 5.85595 42.4915 4.89595 41.0355 4.89595C39.7075 4.89595 38.8115 5.93595 38.7315 7.07195ZM45.9939 9.63195L47.1459 9.23195C47.2579 10.1119 47.9139 10.7839 49.0659 10.7839C49.9779 10.7839 50.5539 10.2719 50.5539 9.61595C50.5539 9.03995 50.0899 8.65595 49.3859 8.49595L48.1379 8.20795C46.9699 7.93595 46.2339 7.18395 46.2339 6.07995C46.2339 4.79995 47.4499 3.75995 48.9059 3.75995C50.8899 3.75995 51.5779 5.02395 51.7539 5.80795L50.6179 6.22395C50.5219 5.69595 50.1219 4.84795 48.9059 4.84795C48.1059 4.84795 47.4819 5.35995 47.4819 5.99995C47.4819 6.54395 47.8179 6.87995 48.4899 7.03995L49.7379 7.32795C51.0819 7.63195 51.8179 8.41595 51.8179 9.55195C51.8179 10.6559 50.8739 11.8719 49.0499 11.8719C47.0339 11.8719 46.1219 10.5919 45.9939 9.63195ZM53.1814 9.63195L54.3334 9.23195C54.4454 10.1119 55.1014 10.7839 56.2534 10.7839C57.1654 10.7839 57.7414 10.2719 57.7414 9.61595C57.7414 9.03995 57.2774 8.65595 56.5734 8.49595L55.3254 8.20795C54.1574 7.93595 53.4214 7.18395 53.4214 6.07995C53.4214 4.79995 54.6374 3.75995 56.0934 3.75995C58.0774 3.75995 58.7654 5.02395 58.9414 5.80795L57.8054 6.22395C57.7094 5.69595 57.3094 4.84795 56.0934 4.84795C55.2934 4.84795 54.6694 5.35995 54.6694 5.99995C54.6694 6.54395 55.0054 6.87995 55.6774 7.03995L56.9254 7.32795C58.2694 7.63195 59.0054 8.41595 59.0054 9.55195C59.0054 10.6559 58.0614 11.8719 56.2374 11.8719C54.2214 11.8719 53.3094 10.5919 53.1814 9.63195ZM65.1406 0.303948H68.6766C70.8366 0.303948 72.1006 1.56795 72.1006 3.35995C72.1006 4.57595 71.3966 5.47195 70.3886 5.82395C71.6686 6.14395 72.4526 7.29595 72.4526 8.57595C72.4526 10.3679 71.0446 11.6479 68.9646 11.6479H65.1406V0.303948ZM66.4846 5.34395H68.6766C69.9246 5.34395 70.7566 4.54395 70.7566 3.42395C70.7566 2.23995 69.9246 1.48795 68.5006 1.48795H66.4846V5.34395ZM66.4846 10.4639H68.8046C70.1806 10.4639 71.1086 9.69595 71.1086 8.49595C71.1086 7.31195 70.2926 6.49595 68.9166 6.49595H66.4846V10.4639ZM76.5721 11.8719C74.9881 11.8719 74.0441 10.7839 74.0441 9.61595C74.0441 8.27195 74.9881 7.51995 76.3321 7.32795L78.3961 7.02395C78.9561 6.94395 79.0841 6.70395 79.0841 6.36795C79.0841 5.50395 78.5081 4.84795 77.3081 4.84795C76.2521 4.84795 75.5961 5.43995 75.4201 6.33595L74.2041 6.07995C74.4281 4.68795 75.6761 3.75995 77.2761 3.75995C79.4521 3.75995 80.3641 5.00795 80.3641 6.49595V10.3679C80.3641 11.0079 80.4121 11.4079 80.4601 11.6479H79.2121C79.1801 11.4719 79.1161 11.0879 79.1161 10.4959C78.7801 11.1199 77.9481 11.8719 76.5721 11.8719ZM75.3241 9.55195C75.3241 10.1759 75.8521 10.7839 76.7321 10.7839C78.0601 10.7839 79.0841 10.0479 79.0841 8.41595V7.90395L76.5881 8.27195C75.8521 8.38395 75.3241 8.79995 75.3241 9.55195ZM84.0698 7.13595V11.6479H82.7897V3.98395H84.0378V5.13595C84.5338 4.23995 85.4298 3.75995 86.4378 3.75995C88.2778 3.75995 89.1738 5.07195 89.1738 6.73595V11.6479H87.8938V6.92795C87.8938 5.80795 87.3818 4.91195 85.9898 4.91195C84.7578 4.91195 84.0698 5.93595 84.0698 7.13595ZM98.2106 3.98395L94.9466 7.23195L98.2906 11.6479H96.6746L94.0506 8.11195L92.8666 9.32795V11.6479H91.5866V0.0799484H92.8666V7.63195L96.4506 3.98395H98.2106ZM99.4072 0.959949C99.4072 0.431949 99.8392 -5.14984e-05 100.367 -5.14984e-05C100.895 -5.14984e-05 101.327 0.431949 101.327 0.959949C101.327 1.48795 100.895 1.91995 100.367 1.91995C99.8392 1.91995 99.4072 1.48795 99.4072 0.959949ZM101.007 11.6479H99.7272V3.98395H101.007V11.6479ZM104.789 7.13595V11.6479H103.508V3.98395H104.757V5.13595C105.253 4.23995 106.149 3.75995 107.157 3.75995C108.997 3.75995 109.893 5.07195 109.893 6.73595V11.6479H108.613V6.92795C108.613 5.80795 108.101 4.91195 106.709 4.91195C105.477 4.91195 104.789 5.93595 104.789 7.13595ZM111.793 12.0799L113.025 11.7759C113.153 12.8959 114.001 13.7599 115.249 13.7599C117.041 13.7599 117.697 12.7039 117.697 11.1199V9.88795C117.345 10.6239 116.513 11.3119 115.265 11.3119C113.233 11.3119 111.809 9.69595 111.809 7.55195C111.809 5.40795 113.217 3.75995 115.297 3.75995C116.497 3.75995 117.329 4.31995 117.713 5.07195V3.98395H118.977V11.0719C118.977 12.9599 118.113 14.9119 115.249 14.9119C113.361 14.9119 111.985 13.6959 111.793 12.0799ZM117.761 7.53595C117.761 5.95195 116.817 4.91195 115.425 4.91195C114.033 4.91195 113.089 5.95195 113.089 7.53595C113.089 9.11995 114.033 10.1599 115.425 10.1599C116.817 10.1599 117.761 9.11995 117.761 7.53595ZM129.865 3.98395H131.193L133.321 10.0479L135.145 3.98395H136.505L134.009 11.6479H132.665L130.521 5.53595L128.409 11.6479H127.049L124.505 3.98395H125.881L127.753 10.0479L129.865 3.98395ZM137.892 0.959949C137.892 0.431949 138.324 -5.14984e-05 138.852 -5.14984e-05C139.38 -5.14984e-05 139.812 0.431949 139.812 0.959949C139.812 1.48795 139.38 1.91995 138.852 1.91995C138.324 1.91995 137.892 1.48795 137.892 0.959949ZM139.492 11.6479H138.212V3.98395H139.492V11.6479ZM143.881 1.55195V3.98395H145.689V5.13595H143.881V9.37595C143.881 10.1759 144.233 10.5759 145.049 10.5759C145.273 10.5759 145.561 10.5279 145.689 10.4959V11.5839C145.545 11.6319 145.177 11.7279 144.681 11.7279C143.417 11.7279 142.601 10.9439 142.601 9.55195V5.13595H141.065V3.98395H141.561C142.345 3.98395 142.681 3.53595 142.681 2.81595V1.55195H143.881ZM148.851 7.07195V11.6479H147.571V0.0799484H148.851V5.00795C149.347 4.20795 150.227 3.75995 151.219 3.75995C153.059 3.75995 153.955 5.07195 153.955 6.73595V11.6479H152.675V6.92795C152.675 5.80795 152.163 4.91195 150.771 4.91195C149.555 4.91195 148.851 5.88795 148.851 7.07195ZM164.42 11.8719C162.116 11.8719 160.404 10.4479 160.404 7.80795V0.303948H161.748V7.77595C161.748 9.59995 162.708 10.6399 164.42 10.6399C166.132 10.6399 167.092 9.59995 167.092 7.77595V0.303948H168.436V7.80795C168.436 10.4479 166.724 11.8719 164.42 11.8719ZM170.633 10.7359C170.633 10.1759 171.082 9.74395 171.625 9.74395C172.17 9.74395 172.618 10.1759 172.618 10.7359C172.618 11.2959 172.17 11.7279 171.625 11.7279C171.082 11.7279 170.633 11.2959 170.633 10.7359ZM182.398 2.87995L181.198 3.31195C181.022 2.35195 180.27 1.29595 178.638 1.27995C177.326 1.27995 176.286 2.14395 176.286 3.29595C176.286 4.20795 176.878 4.86395 177.918 5.08795L179.582 5.45595C181.406 5.85595 182.494 6.99195 182.494 8.59195C182.494 10.3359 181.006 11.8719 178.638 11.8719C176.014 11.8719 174.686 10.1599 174.478 8.49595L175.742 8.09595C175.87 9.43995 176.846 10.6559 178.638 10.6559C180.27 10.6559 181.15 9.79195 181.15 8.70395C181.15 7.77595 180.51 7.05595 179.31 6.78395L177.646 6.41595C176.078 6.06395 174.942 5.03995 174.942 3.37595C174.942 1.59995 176.574 0.0799484 178.622 0.0799484C181.07 0.0799484 182.11 1.56795 182.398 2.87995ZM184.54 10.7359C184.54 10.1759 184.988 9.74395 185.532 9.74395C186.076 9.74395 186.524 10.1759 186.524 10.7359C186.524 11.2959 186.076 11.7279 185.532 11.7279C184.988 11.7279 184.54 11.2959 184.54 10.7359ZM192.922 0.303948H196.458C198.618 0.303948 199.882 1.56795 199.882 3.35995C199.882 4.57595 199.178 5.47195 198.17 5.82395C199.45 6.14395 200.234 7.29595 200.234 8.57595C200.234 10.3679 198.826 11.6479 196.746 11.6479H192.922V0.303948ZM194.266 5.34395H196.458C197.706 5.34395 198.538 4.54395 198.538 3.42395C198.538 2.23995 197.706 1.48795 196.282 1.48795H194.266V5.34395ZM194.266 10.4639H196.586C197.962 10.4639 198.89 9.69595 198.89 8.49595C198.89 7.31195 198.074 6.49595 196.698 6.49595H194.266V10.4639ZM204.353 11.8719C202.769 11.8719 201.825 10.7839 201.825 9.61595C201.825 8.27195 202.769 7.51995 204.113 7.32795L206.177 7.02395C206.737 6.94395 206.865 6.70395 206.865 6.36795C206.865 5.50395 206.289 4.84795 205.089 4.84795C204.033 4.84795 203.377 5.43995 203.201 6.33595L201.985 6.07995C202.209 4.68795 203.457 3.75995 205.057 3.75995C207.233 3.75995 208.145 5.00795 208.145 6.49595V10.3679C208.145 11.0079 208.193 11.4079 208.241 11.6479H206.993C206.961 11.4719 206.897 11.0879 206.897 10.4959C206.561 11.1199 205.729 11.8719 204.353 11.8719ZM203.105 9.55195C203.105 10.1759 203.633 10.7839 204.513 10.7839C205.841 10.7839 206.865 10.0479 206.865 8.41595V7.90395L204.369 8.27195C203.633 8.38395 203.105 8.79995 203.105 9.55195ZM211.851 7.13595V11.6479H210.571V3.98395H211.819V5.13595C212.315 4.23995 213.211 3.75995 214.219 3.75995C216.059 3.75995 216.955 5.07195 216.955 6.73595V11.6479H215.675V6.92795C215.675 5.80795 215.163 4.91195 213.771 4.91195C212.539 4.91195 211.851 5.93595 211.851 7.13595ZM225.992 3.98395L222.728 7.23195L226.072 11.6479H224.456L221.832 8.11195L220.648 9.32795V11.6479H219.368V0.0799484H220.648V7.63195L224.232 3.98395H225.992Z" fill="white"/>
</svg>
